<?xml version="1.0" encoding="UTF-8"?>
<svg width="16px" height="16px" viewBox="0 0 16 16" version="1.1" xmlns="http://www.w3.org/2000/svg" xmlns:xlink="http://www.w3.org/1999/xlink">
    
    <g id="质量策划" stroke="none" stroke-width="1"  fill-rule="evenodd">
        <g id="iocn" transform="translate(-116.000000, -4.000000)" fill="#F55E5E">
            <path d="M128,7 C129.104569,7 130,7.8954305 130,9 L130,15 C130,16.1045695 129.104569,17 128,17 L120,17 C118.895431,17 118,16.1045695 118,15 L118,9 C118,7.8954305 118.895431,7 120,7 L128,7 Z M126,11 L122,11 C120.895431,11 120,11.8954305 120,13 C120,14.1045695 120.895431,15 122,15 L122,15 L126,15 C127.104569,15 128,14.1045695 128,13 C128,11.8954305 127.104569,11 126,11 L126,11 Z" id="形状结合"></path>
        </g>
    </g>
</svg>