<?xml version="1.0" encoding="UTF-8"?>
<svg width="16px" height="16px" viewBox="0 0 16 16" version="1.1" xmlns="http://www.w3.org/2000/svg" xmlns:xlink="http://www.w3.org/1999/xlink">
    
    <g id="FMEA" stroke="none" stroke-width="1"  fill-rule="evenodd">
        <g id="iocn" transform="translate(-507.000000, -67.000000)"  fill-rule="nonzero">
            <path d="M516.99775,71.611 L517.70475,72.318 C519.46575,74.08 519.46575,76.945 517.70475,78.707 L517.70475,78.707 L514.70675,81.68 C513.85675,82.53 512.72275,83 511.51575,83 C510.30875,83 509.17375,82.53 508.32075,81.677 C506.55975,79.915 506.55975,77.05 508.32075,75.288 L508.32075,75.288 L509.02775,74.581 L510.44175,75.995 L509.73475,76.702 C508.75375,77.684 508.75375,79.282 509.73475,80.263 C510.68675,81.214 512.34475,81.214 513.29575,80.263 L513.29575,80.263 L516.29375,77.29 C517.27175,76.311 517.27175,74.713 516.29075,73.732 L516.29075,73.732 L515.58375,73.025 L516.99775,71.611 Z M518.47975,67 C519.68675,67 520.82175,67.47 521.67575,68.323 C523.43675,70.085 523.43675,72.95 521.67575,74.712 L521.67575,74.712 L520.96875,75.419 L519.55375,74.005 L520.26075,73.298 C521.24175,72.316 521.24175,70.718 520.26075,69.737 C519.30875,68.786 517.65075,68.786 516.69975,69.737 L516.69975,69.737 L513.70175,72.71 C512.72375,73.688 512.72375,75.286 513.70475,76.268 L513.70475,76.268 L514.41275,76.975 L512.99775,78.389 L512.29075,77.682 C510.52975,75.92 510.52975,73.055 512.29075,71.293 L512.29075,71.293 L515.28875,68.32 C516.13875,67.47 517.27275,67 518.47975,67 Z" id="形状结合"></path>
        </g>
    </g>
</svg>