<?xml version="1.0" encoding="UTF-8"?>
<svg width="16px" height="16px" viewBox="0 0 16 16" version="1.1" xmlns="http://www.w3.org/2000/svg" xmlns:xlink="http://www.w3.org/1999/xlink">
    
    <g id="FMEA" stroke="none" stroke-width="1"  fill-rule="evenodd">
        <g id="iocn" transform="translate(-14.000000, -25.000000)" fill="#164E88" fill-rule="nonzero">
            <path d="M28.48,26 C28.767625,26 29,26.232375 29,26.52 L29,26.52 L29,38.48 C29,38.767625 28.767625,39 28.48,39 L28.48,39 L16.52,39 C16.232375,39 16,38.767625 16,38.48 L16,38.48 L16,26.52 C16,26.232375 16.232375,26 16.52,26 L16.52,26 Z M27,28 L18,28 L18,37 L27,37 L27,28 Z M24.8958333,32 C24.953125,32 25,32.05625 25,32.125 L25,32.125 L25,32.875 C25,32.94375 24.953125,33 24.8958333,33 L24.8958333,33 L20.1041667,33 C20.046875,33 20,32.94375 20,32.875 L20,32.875 L20,32.125 C20,32.05625 20.046875,32 20.1041667,32 L20.1041667,32 Z" id="fill"></path>
        </g>
    </g>
</svg>