<?xml version="1.0" encoding="UTF-8"?>
<svg width="16px" height="16px" viewBox="0 0 16 16" version="1.1" xmlns="http://www.w3.org/2000/svg" xmlns:xlink="http://www.w3.org/1999/xlink">
    
    <g id="FMEA" stroke="none" stroke-width="1"  fill-rule="evenodd">
        <g id="iocn" transform="translate(-55.000000, -25.000000)" fill="#1C1D21" fill-rule="nonzero">
            <path d="M69.48,26 C69.767625,26 70,26.232375 70,26.52 L70,26.52 L70,38.48 C70,38.767625 69.767625,39 69.48,39 L69.48,39 L57.52,39 C57.232375,39 57,38.767625 57,38.48 L57,38.48 L57,26.52 C57,26.232375 57.232375,26 57.52,26 L57.52,26 Z M68,28 L59,28 L59,37 L68,37 L68,28 Z M63.875,30 C63.94375,30 64,30.046875 64,30.1041667 L64,30.1041667 L64,32 L65.8958333,32 C65.9416667,32 65.9808333,32.036 65.9946667,32.0856 L66,32.125 L66,32.875 C66,32.94375 65.953125,33 65.8958333,33 L65.8958333,33 L64,33 L64,34.8958333 C64,34.9416667 63.964,34.9808333 63.9144,34.9946667 L63.875,35 L63.125,35 C63.05625,35 63,34.953125 63,34.8958333 L63,34.8958333 L63,33 L61.1041667,33 C61.0583333,33 61.0191667,32.964 61.0053333,32.9144 L61,32.875 L61,32.125 C61,32.05625 61.046875,32 61.1041667,32 L61.1041667,32 L63,32 L63,30.1041667 C63,30.0583333 63.036,30.0191667 63.0856,30.0053333 L63.125,30 Z" id="fill"></path>
        </g>
    </g>
</svg>