<?xml version="1.0" encoding="UTF-8"?>
<svg width="16px" height="16px" viewBox="0 0 16 16" version="1.1" xmlns="http://www.w3.org/2000/svg" xmlns:xlink="http://www.w3.org/1999/xlink">
    <g id="页面-1" stroke="none" stroke-width="1" fill="none" fill-rule="evenodd">
        <g id="icon整理" transform="translate(-1290.000000, -438.000000)" fill="#A1A8B5" fill-rule="nonzero">
            <path d="M1298,438 C1302.41828,438 1306,441.581722 1306,446 C1306,450.418278 1302.41828,454 1298,454 C1293.58172,454 1290,450.418278 1290,446 C1290,441.581722 1293.58172,438 1298,438 Z M1298,440 C1294.68629,440 1292,442.686292 1292,446 C1292,449.313708 1294.68629,452 1298,452 C1301.31371,452 1304,449.313708 1304,446 C1304,442.686292 1301.31371,440 1298,440 Z M1299,442 L1299.00108,446.268188 C1299.59828,446.614151 1300,447.260163 1300,448 C1300,449.104569 1299.10457,450 1298,450 C1296.89543,450 1296,449.104569 1296,448 C1296,447.259748 1296.40217,446.613426 1296.99993,446.267606 L1297,442 L1299,442 Z" id="形状结合"></path>
        </g>
    </g>
</svg>
