<?xml version="1.0" encoding="UTF-8"?>
<svg width="20px" height="20px" viewBox="0 0 20 20" version="1.1" xmlns="http://www.w3.org/2000/svg" xmlns:xlink="http://www.w3.org/1999/xlink">
    <title>形状结合</title>
    <g id="页面-1" stroke="none" stroke-width="1" fill="none" fill-rule="evenodd">
        <path d="M16,0 C18.209139,-4.05812251e-16 20,1.790861 20,4 L20,16 C20,18.209139 18.209139,20 16,20 L4,20 C1.790861,20 2.705415e-16,18.209139 0,16 L0,4 C-2.705415e-16,1.790861 1.790861,4.05812251e-16 4,0 L16,0 Z M15,3 L5,3 C3.8954305,3 3,3.8954305 3,5 L3,5 L3,15 C3,16.1045695 3.8954305,17 5,17 L5,17 L15,17 C16.1045695,17 17,16.1045695 17,15 L17,15 L17,5 C17,3.8954305 16.1045695,3 15,3 L15,3 Z M15,5 L15,15 L5,15 L5,5 L15,5 Z M13,7 L7,7 L7,13 L13,13 L13,7 Z" id="形状结合" fill="#32AFEA"></path>
    </g>
</svg>
