<?xml version="1.0" encoding="UTF-8"?>
<svg width="16px" height="16px" viewBox="0 0 16 16" version="1.1" xmlns="http://www.w3.org/2000/svg" xmlns:xlink="http://www.w3.org/1999/xlink">
    
    <g id="FMEA" stroke="none" stroke-width="1"  fill-rule="evenodd">
        <g id="iocn" transform="translate(-252.000000, -26.000000)" fill="#fff">
            <path d="M265,40 C264.4,40 264,39.6 264,39 C264,38.4 264.4,38 265,38 C265.6,38 266,38.4 266,39 C266,39.6 265.6,40 265,40 M260,30 C259.4,30 259,29.6 259,29 C259,28.4 259.4,28 260,28 C260.6,28 261,28.4 261,29 C261,29.6 260.6,30 260,30 M255,40 C254.4,40 254,39.6 254,39 C254,38.4 254.4,38 255,38 C255.6,38 256,38.4 256,39 C256,39.6 255.6,40 255,40 M265,36 C264.4,36 263.9,36.2 263.4,36.5 L261,34.5 L261,31.8 C262.2,31.4 263,30.3 263,29 C263,27.3 261.7,26 260,26 C258.3,26 257,27.3 257,29 C257,30.3 257.8,31.4 259,31.8 L259,34.5 L256.6,36.4 C256.1,36.2 255.6,36 255,36 C253.3,36 252,37.3 252,39 C252,40.7 253.3,42 255,42 C256.7,42 258,40.7 258,39 C258,38.7 257.9,38.3 257.8,38 L260,36.3 L262.2,38 C262.1,38.3 262,38.6 262,39 C262,40.7 263.3,42 265,42 C266.7,42 268,40.7 268,39 C268,37.3 266.7,36 265,36" id="Fill-322"></path>
        </g>
    </g>
</svg>