<?xml version="1.0" encoding="UTF-8"?>
<svg width="16px" height="16px" viewBox="0 0 16 16" version="1.1" xmlns="http://www.w3.org/2000/svg" xmlns:xlink="http://www.w3.org/1999/xlink">
    <title>形状结合备份 4</title>
    <g id="页面-1" stroke="none" stroke-width="1" fill="none" fill-rule="evenodd">
        <path d="M8,0 C12.418278,0 16,3.581722 16,8 C16,12.418278 12.418278,16 8,16 C3.581722,16 0,12.418278 0,8 C0,3.581722 3.581722,0 8,0 Z M8,2 C4.6862915,2 2,4.6862915 2,8 C2,11.3137085 4.6862915,14 8,14 C11.3137085,14 14,11.3137085 14,8 C14,4.6862915 11.3137085,2 8,2 Z M7.92004417,3.59885286 C11.1427004,3.59885286 12.7540285,5.07346224 12.7540285,8.02268099 C12.7540285,9.42502474 12.3028567,10.5510013 11.4005129,11.4006107 C10.4981692,12.25022 9.33410667,12.6750247 7.90832542,12.6750247 L4.78527855,12.6750247 L4.78527855,3.59885286 L7.92004417,3.59885286 Z M7.76770042,5.18088411 L6.7188723,5.18088411 L6.7188723,11.0929935 L7.7735598,11.0929935 C8.69152855,11.0929935 9.41223167,10.819556 9.93566917,10.272681 C10.4591067,9.72580599 10.7208254,8.98557161 10.7208254,8.05197786 C10.7208254,7.14963411 10.4473879,6.44553255 9.90051292,5.93967317 C9.35363792,5.4338138 8.64270042,5.18088411 7.76770042,5.18088411 Z" id="形状结合" fill="#1C1D21" fill-rule="nonzero"></path>
    </g>
</svg>