<?xml version="1.0" encoding="UTF-8"?>
<svg width="16px" height="16px" viewBox="0 0 16 16" version="1.1" xmlns="http://www.w3.org/2000/svg" xmlns:xlink="http://www.w3.org/1999/xlink">
    
    <g id="FMEA" stroke="none" stroke-width="1"  fill-rule="evenodd">
        <g id="iocn" transform="translate(-361.000000, -67.000000)"  fill-rule="nonzero">
            <path d="M376,77 C376.552,77 377,77.448 377,78 L377,78 L377,82 C377,82.552 376.552,83 376,83 L376,83 L368,83 C367.448,83 367,82.552 367,82 L367,82 L367,78 C367,77.448 367.448,77 368,77 L368,77 Z M362,67 C362.552,67 363,67.448 363,68 L363,68 L363,71 L366,71 L366,73 L363,73 L363,79 L366,79 L366,81 L362,81 C361.448,81 361,80.553 361,80 L361,80 L361,68 C361,67.448 361.448,67 362,67 Z M376,69 C376.552,69 377,69.448 377,70 L377,70 L377,74 C377,74.552 376.552,75 376,75 L376,75 L368,75 C367.448,75 367,74.552 367,74 L367,74 L367,70 C367,69.448 367.448,69 368,69 L368,69 Z" id="形状结合"></path>
        </g>
    </g>
</svg>