<?xml version="1.0" encoding="UTF-8"?>
<svg width="16px" height="16px" viewBox="0 0 16 16" version="1.1" xmlns="http://www.w3.org/2000/svg" xmlns:xlink="http://www.w3.org/1999/xlink">
    
    <g id="FMEA" stroke="none" stroke-width="1"  fill-rule="evenodd">
        <g id="iocn" transform="translate(-945.000000, -67.000000)"  fill-rule="nonzero">
            <path d="M951,76 C951.552,76 952,76.448 952,77 L952,77 L952,82 C952,82.552 951.552,83 951,83 L951,83 L946,83 C945.448,83 945,82.552 945,82 L945,82 L945,77 C945,76.448 945.448,76 946,76 L946,76 Z M960,76 C960.552,76 961,76.448 961,77 L961,77 L961,82 C961,82.552 960.552,83 960,83 L960,83 L955,83 C954.448,83 954,82.552 954,82 L954,82 L954,77 C954,76.448 954.448,76 955,76 L955,76 Z M951,67 C951.552,67 952,67.448 952,68 L952,68 L952,73 C952,73.552 951.552,74 951,74 L951,74 L946,74 C945.448,74 945,73.552 945,73 L945,73 L945,68 C945,67.448 945.448,67 946,67 L946,67 Z M960,67 C960.552,67 961,67.448 961,68 L961,68 L961,73 C961,73.552 960.552,74 960,74 L960,74 L955,74 C954.448,74 954,73.552 954,73 L954,73 L954,68 C954,67.448 954.448,67 955,67 L955,67 Z" id="形状结合"></path>
        </g>
    </g>
</svg>