<?xml version="1.0" encoding="UTF-8"?>
<svg width="16px" height="16px" viewBox="0 0 16 16" version="1.1" xmlns="http://www.w3.org/2000/svg" xmlns:xlink="http://www.w3.org/1999/xlink">
    
    <g id="FMEA" stroke="none" stroke-width="1"  fill-rule="evenodd">
        <g id="iocn" transform="translate(-58.000000, -67.000000)"  fill-rule="nonzero">
            <path d="M73,67 L59,67 C58.447,67 58,67.448 58,68 L58,82 C58,82.552 58.447,83 59,83 L73,83 C73.553,83 74,82.552 74,82 L74,68 C74,67.448 73.553,67 73,67 Z M70,76 L67,76 L67,79 L65,79 L65,76 L62,76 L62,74 L65,74 L65,71 L67,71 L67,74 L70,74 L70,76 Z" id="形状"></path>
        </g>
    </g>
</svg>