<?xml version="1.0" encoding="UTF-8"?>
<svg width="16px" height="16px" viewBox="0 0 16 16" version="1.1" xmlns="http://www.w3.org/2000/svg" xmlns:xlink="http://www.w3.org/1999/xlink">
    
    <g id="FMEA" stroke="none" stroke-width="1"  fill-rule="evenodd">
        <g id="iocn" transform="translate(-131.000000, -67.000000)"  fill-rule="nonzero">
            <path d="M137,67.00025 C137.552,67.00025 138,67.44725 138,68.00025 C138,68.55325 137.552,69.00025 137,69.00025 L137,69.00025 L133,69.00025 L133,81.00025 L145,81.00025 L145,77.00025 C145,76.44725 145.448,76.00025 146,76.00025 C146.552,76.00025 147,76.44725 147,77.00025 L147,77.00025 L147,82.00025 C147,82.55325 146.552,83.00025 146,83.00025 L146,83.00025 L132,83.00025 C131.448,83.00025 131,82.55325 131,82.00025 L131,82.00025 L131,68.00025 C131,67.44725 131.448,67.00025 132,67.00025 L132,67.00025 Z M143.707,67.29325 C144.097,66.90225 144.73,66.90225 145.121,67.29325 L145.121,67.29325 L146.707,68.87925 C147.098,69.26925 147.098,69.90225 146.707,70.29325 L146.707,70.29325 L140,77.00025 L137,77.00025 L137,74.00025 Z" id="形状结合"></path>
        </g>
    </g>
</svg>