<?xml version="1.0" encoding="UTF-8"?>
<svg width="16px" height="16px" viewBox="0 0 16 16" version="1.1" xmlns="http://www.w3.org/2000/svg" xmlns:xlink="http://www.w3.org/1999/xlink">
    
    <g id="FMEA" stroke="none" stroke-width="1"  fill-rule="evenodd">
        <g id="iocn" transform="translate(-872.000000, -67.000000)"  fill-rule="nonzero">
            <path d="M885,77.586 C885.63,76.536 886,75.311 886,74 C886,70.14 882.86,67 879,67 C875.14,67 872,70.14 872,74 C872,77.86 875.14,81 879,81 C880.312,81 881.536,80.631 882.586,80 L885.293,82.707 C885.488,82.902 885.744,83 886,83 C886.256,83 886.512,82.902 886.707,82.707 L887.707,81.707 C888.098,81.316 888.098,80.684 887.707,80.293 L885,77.586 Z M882,75 L880,75 L880,77 L878,77 L878,75 L876,75 L876,73 L878,73 L878,71 L880,71 L880,73 L882,73 L882,75 Z" id="形状"></path>
        </g>
    </g>
</svg>