<?xml version="1.0" encoding="UTF-8"?>
<svg width="13px" height="13px" viewBox="0 0 13 13" version="1.1" xmlns="http://www.w3.org/2000/svg" xmlns:xlink="http://www.w3.org/1999/xlink">
    <title>fill 3</title>
    <g id="页面-1" stroke="none" stroke-width="1" fill="none" fill-rule="evenodd">
        <path d="M12.48,0 C12.767625,0 13,0.232375 13,0.52 L13,12.48 C13,12.767625 12.767625,13 12.48,13 L0.52,13 C0.232375,13 0,12.767625 0,12.48 L0,0.52 C0,0.232375 0.232375,0 0.52,0 Z M12.0100475,0.996154785 L0.99961853,0.996154785 L0.99961853,12.0034061 L12.0100475,12.0034061 L12.0100475,0.996154785 Z M8.89583333,6 C8.953125,6 9,6.05625 9,6.125 L9,6.875 C9,6.94375 8.953125,7 8.89583333,7 L4.10416667,7 C4.046875,7 4,6.94375 4,6.875 L4,6.125 C4,6.05625 4.046875,6 4.10416667,6 Z" id="fill" fill="#A6A5A5" fill-rule="nonzero"></path>
    </g>
</svg>