<?xml version="1.0" encoding="UTF-8"?>
<svg width="13px" height="13px" viewBox="0 0 13 13" version="1.1" xmlns="http://www.w3.org/2000/svg" xmlns:xlink="http://www.w3.org/1999/xlink">
    <title>fill</title>
    <g id="页面-1" stroke="none" stroke-width="1" fill="none" fill-rule="evenodd">
        <path d="M12.48,0 C12.767625,0 13,0.232375 13,0.52 L13,12.48 C13,12.767625 12.767625,13 12.48,13 L0.52,13 C0.232375,13 0,12.767625 0,12.48 L0,0.52 C0,0.232375 0.232375,0 0.52,0 Z M12.003067,1.0060517 L0.999669808,1.0060517 L0.999669808,12.0110802 L12.003067,12.0110802 L12.003067,1.0060517 Z M6.875,4 C6.94375,4 7,4.046875 7,4.10416667 L6.999,6 L8.89583333,6 C8.94166667,6 8.98083333,6.036 8.99466667,6.0856 L9,6.125 L9,6.875 C9,6.94375 8.953125,7 8.89583333,7 L6.999,7 L7,8.89583333 C7,8.94166667 6.964,8.98083333 6.9144,8.99466667 L6.875,9 L6.125,9 C6.05625,9 6,8.953125 6,8.89583333 L5.999,7 L4.10416667,7 C4.05833333,7 4.01916667,6.964 4.00533333,6.9144 L4,6.875 L4,6.125 C4,6.05625 4.046875,6 4.10416667,6 L5.999,6 L6,4.10416667 C6,4.05833333 6.036,4.01916667 6.0856,4.00533333 L6.125,4 Z" id="fill" fill="#A6A5A5" fill-rule="nonzero"></path>
    </g>
</svg>