<?xml version="1.0" encoding="UTF-8"?>
<svg width="16px" height="16px" viewBox="0 0 16 16" version="1.1" xmlns="http://www.w3.org/2000/svg" xmlns:xlink="http://www.w3.org/1999/xlink">
    
    <g id="页面-1" stroke="none" stroke-width="1" fill="#164E88" fill-rule="evenodd">
        <g id="07.图标" transform="translate(-698.000000, -234.000000)">
            <g id="编组-34" transform="translate(482.000000, 234.000000)">
                <g id="编组-50" transform="translate(108.000000, 0.000000)">
                    <g id="编组-77" transform="translate(36.000000, 0.000000)"></g>
                </g>
            </g>
            <path d="M701,236 C701.6,236 702,236.4 702,237 C702,237.6 702.4,238 703,238 C703.6,238 704,237.6 704,237 C704,236.442857 704.344898,236.058163 704.874563,236.00605 L705,236 L707,236 C707.6,236 708,236.4 708,237 C708,237.6 708.4,238 709,238 C709.6,238 710,237.6 710,237 C710,236.442857 710.344898,236.058163 710.874563,236.00605 L711,236 L713,236 C713.557143,236 713.941837,236.344898 713.99395,236.874563 L714,237 L714,248 C714,248.557143 713.655102,248.941837 713.125437,248.99395 L713,249 L699,249 C698.442857,249 698.058163,248.655102 698.00605,248.125437 L698,248 L698,237 C698,236.442857 698.344898,236.058163 698.874563,236.00605 L699,236 L701,236 Z M700.2,238 L700,238 L700,247 L712,247 L712,238 L711.8,238 C711.4,239.2 710.3,240 709,240 C707.768421,240 706.716343,239.281994 706.183875,238.186091 L706.1,238 L705.8,238 C705.4,239.2 704.3,240 703,240 C701.7,240 700.6,239.2 700.2,238 Z M705,242 L705,245 L702,245 L702,242 L705,242 Z M710,244 L710,245 L706,245 L706,244 L710,244 Z M710,242 L710,243 L706,243 L706,242 L710,242 Z" id="形状结合" fill="#164E88" fill-rule="nonzero"></path>
        </g>
    </g>
</svg>