<?xml version="1.0" encoding="UTF-8"?>
<svg width="16px" height="16px" viewBox="0 0 16 16" version="1.1" xmlns="http://www.w3.org/2000/svg" xmlns:xlink="http://www.w3.org/1999/xlink">
    <title>形状结合</title>
    <g id="页面-1" stroke="none" stroke-width="1" fill="none" fill-rule="evenodd">
        <g id="QBOM-新建-图纸" transform="translate(-125.000000, -582.000000)" fill="#444444" fill-rule="nonzero">
            <g id="files-16-px-folder-18" transform="translate(125.000000, 582.000000)">
                <path d="M14.9915513,7 C15.2913824,7 15.5912134,7.2 15.7911007,7.4 C15.9909881,7.7 16.0909318,8.1 15.8910444,8.4 L15.8910444,8.4 L12.8927341,15.4 C12.7927905,15.8 12.3930158,16 11.9932411,16 L11.9932411,16 L0.999436755,16 C0.0999436755,16 -0.0999436755,15.2 0.0999436755,14.6 L0.0999436755,14.6 L3.09825394,7.6 C3.19819762,7.2 3.59797232,7 3.99774702,7 L3.99774702,7 Z M3.99774702,0 C4.29757805,0 4.4974654,0.1 4.69735275,0.3 L4.69735275,0.3 L6.39639523,2 L11.9932411,2 C12.5929031,2 12.9926778,2.4 12.9926778,3 L12.9926778,3 L12.9926778,5 L3.99774702,5 C2.79842291,5 1.69904248,5.7 1.19932411,6.8 L1.19932411,6.8 L0,9.7 L0,1 C0,0.4 0.399774702,0 0.999436755,0 L0.999436755,0 Z" id="形状结合"></path>
            </g>
        </g>
    </g>
</svg>