<?xml version="1.0" encoding="UTF-8"?>
<svg width="16px" height="16px" viewBox="0 0 16 16" version="1.1" xmlns="http://www.w3.org/2000/svg" xmlns:xlink="http://www.w3.org/1999/xlink">
    <!-- Generator: Sketch 58 (84663) - https://sketch.com -->
    
    <desc>Created with Sketch.</desc>
    <g id="页面-2" stroke="none" stroke-width="1"  fill-rule="evenodd">
        <g id="画板" transform="translate(-361.000000, -120.000000)" fill="#47A085" fill-rule="nonzero">
            <g id="arrows-16-px-1-fullscreen-76" transform="translate(361.000000, 120.000000)">
                <polygon id="路径" points="0 7 2.8 4.2 5.3 6.7 6.7 5.3 4.2 2.8 7 0 0 0"></polygon>
                <polygon id="路径" points="9 0 11.8 2.8 9.3 5.3 10.7 6.7 13.2 4.2 16 7 16 0"></polygon>
                <polygon id="路径" points="6.7 10.7 5.3 9.3 2.8 11.8 0 9 0 16 7 16 4.2 13.2"></polygon>
                <polygon id="路径" points="10.7 9.3 9.3 10.7 11.8 13.2 9 16 16 16 16 9 13.2 11.8"></polygon>
            </g>
        </g>
    </g>
</svg>
