<?xml version="1.0" encoding="UTF-8"?>
<svg width="16px" height="16px" viewBox="0 0 16 16" version="1.1" xmlns="http://www.w3.org/2000/svg" xmlns:xlink="http://www.w3.org/1999/xlink">
    
    <g id="FMEA" stroke="none" stroke-width="1"  fill-rule="evenodd">
        <g id="iocn" transform="translate(-88.000000, -25.000000)" fill="#3EC66D">
            <path d="M100,28 C101.104569,28 102,28.8954305 102,30 L102,36 C102,37.1045695 101.104569,38 100,38 L92,38 C90.8954305,38 90,37.1045695 90,36 L90,30 C90,28.8954305 90.8954305,28 92,28 L100,28 Z M98,30 L94,30 C92.8954305,30 92,30.8954305 92,32 L92,32 L92,34 C92,35.1045695 92.8954305,36 94,36 L94,36 L98,36 C99.1045695,36 100,35.1045695 100,34 L100,34 L100,32 C100,30.8954305 99.1045695,30 98,30 L98,30 Z" id="形状结合"></path>
        </g>
    </g>
</svg>
