<?xml version="1.0" standalone="no"?><!DOCTYPE svg PUBLIC "-//W3C//DTD SVG 1.1//EN" "http://www.w3.org/Graphics/SVG/1.1/DTD/svg11.dtd"><svg t="1580968535464" class="icon" viewBox="0 0 1024 1024" version="1.1" xmlns="http://www.w3.org/2000/svg" p-id="7670" xmlns:xlink="http://www.w3.org/1999/xlink" width="15" height="15"><defs><style type="text/css"></style></defs><path d="M960 64H768v80a449.6 449.6 0 0 0-512 0V64H64v192h80a449.6 449.6 0 0 0 0 512H64v192h192v-80a449.6 449.6 0 0 0 512 0v80h192V768h-80a449.6 449.6 0 0 0 0-512h80z m-64 448a382.4 382.4 0 0 1-97.6 256H768v30.4a384 384 0 0 1-512 0V768h-30.4a384 384 0 0 1 0-512H256v-30.4a384 384 0 0 1 512 0V256h30.4A382.4 382.4 0 0 1 896 512z" fill="#333333" p-id="7671"></path></svg>