<svg xmlns="http://www.w3.org/2000/svg" width="12" height="10" viewBox="0 0 12 10">
  <g fill="#F55E5E" fill-rule="evenodd" transform="translate(-545 -159)">
    <path fill-rule="nonzero" d="M12,0 L12,10 L0,10 L0,0 L12,0 Z M10,2 L2,2 L2,8 L10,8 L10,2 Z" transform="translate(545 159)"/>
    <path d="M551.866667,165.8 L549.2,163.133333 C548.933333,162.866667 548.933333,162.466667 549.2,162.2 C549.466667,161.933333 549.866667,161.933333 550.133333,162.2 L552.8,164.866667 C553.066667,165.133333 553.066667,165.533333 552.8,165.8 C552.666667,165.933333 552.533333,166 552.333333,166 C552.133333,166 552,165.933333 551.866667,165.8 Z"/>
  </g>
</svg>
